<svg width="92" height="32" viewBox="0 0 92 32" fill="none" xmlns="http://www.w3.org/2000/svg">
<g clip-path="url(#clip0_1_6)">
<path d="M4.97927 21.8042H6.81737C6.81737 19.6065 9.56367 16.9036 11.7966 16.9036H15.3386V20.3877C15.3386 22.5854 12.5923 25.2883 10.3593 25.2883V26.1919V27.0955C12.5923 27.0955 15.3386 29.7984 15.3386 31.9961H17.1767C17.1767 29.7984 19.923 27.0955 22.156 27.0955V26.1919V25.2883C19.923 25.2883 17.1767 22.5854 17.1767 20.3877V16.9036H20.7187C22.9516 16.9036 25.6979 19.6065 25.6979 21.8042H27.536C27.536 19.6065 30.2823 16.9036 32.5153 16.9036V15.0945C30.2823 15.0945 27.536 12.3915 27.536 10.1938H25.6979C25.6979 12.3915 22.9516 15.0945 20.7187 15.0945H17.1747V11.6104C17.1747 9.41268 19.921 6.70974 22.154 6.70974V5.80617V4.9026C19.921 4.90066 17.1747 2.19772 17.1747 0H16.2567H15.3386C15.3386 2.19772 12.5923 4.90066 10.3593 4.90066V5.80423V6.7078C12.5923 6.7078 15.3386 9.41074 15.3386 11.6085V15.0945H11.7966C9.56367 15.0945 6.81737 12.3915 6.81737 10.1938H4.97927C4.97927 12.3915 2.23297 15.0945 0 15.0945V16.9036C2.23297 16.9036 4.97927 19.6065 4.97927 21.8042Z" fill="#040000"/>
<path d="M58.2033 15.6774H63.4333V22.4824C62.9378 22.9274 62.2922 23.2655 61.4965 23.4948C60.7009 23.7241 59.8874 23.8387 59.0562 23.8387C58.079 23.8387 57.1629 23.6735 56.3099 23.3432C55.457 23.0129 54.7167 22.5135 54.0888 21.847C53.461 21.1785 52.9654 20.3546 52.6002 19.3714C52.2349 18.3881 52.0533 17.2358 52.0533 15.9145C52.0533 14.5212 52.2724 13.3379 52.7088 12.3604C53.1471 11.385 53.7117 10.5844 54.4047 9.9587C55.0977 9.33495 55.8736 8.8783 56.7344 8.59071C57.5952 8.30313 58.4481 8.15933 59.2951 8.15933C60.1698 8.15933 60.9003 8.22734 61.4827 8.36336C62.0651 8.49939 62.5982 8.67621 63.0799 8.8919V13.3495H60.6732V10.9594C60.5567 10.9303 60.4403 10.9011 60.3238 10.8739C60.0316 10.8176 59.7117 10.7884 59.3603 10.7884C58.7621 10.7884 58.2073 10.8895 57.6979 11.0896C57.1866 11.2917 56.7463 11.6026 56.3731 12.0262C56.002 12.4498 55.7137 12.992 55.5084 13.6527C55.305 14.3133 55.2023 15.1023 55.2023 16.0214C55.2023 16.8394 55.305 17.572 55.5084 18.2191C55.7117 18.8642 55.998 19.4102 56.3613 19.8552C56.7265 20.3002 57.1609 20.6383 57.6624 20.8676C58.1658 21.0969 58.7088 21.2116 59.2932 21.2116C59.6722 21.2116 60.0177 21.1688 60.3317 21.0833C60.6456 20.9978 60.8608 20.9104 60.9773 20.8249V17.8324H58.2033V15.6774Z" fill="#040000"/>
<path d="M74.5015 17.3991H77.2142V23.5356H67.149V8.46246H70.1461V20.9104H74.4995V17.3991H74.5015Z" fill="#040000"/>
<path d="M80.8411 8.46247C80.9733 8.44887 81.2024 8.4275 81.5301 8.39835C81.8579 8.3692 82.231 8.34394 82.6456 8.32256C83.0622 8.30119 83.4906 8.2837 83.9368 8.26816C84.381 8.25455 84.7799 8.24678 85.1293 8.24678C86.4857 8.24678 87.6091 8.4411 88.4995 8.82779C89.3899 9.21642 90.0928 9.75079 90.6101 10.4328C91.1273 11.1149 91.4886 11.9194 91.694 12.8443C91.8973 13.7712 92 14.7797 92 15.8698C92 16.8608 91.8973 17.8305 91.694 18.7768C91.4886 19.725 91.1214 20.5684 90.5883 21.3068C90.0553 22.0471 89.3189 22.6417 88.3791 23.0945C87.4393 23.5472 86.231 23.7726 84.7581 23.7726C84.5252 23.7726 84.2251 23.7649 83.8618 23.7513C83.4965 23.7377 83.1254 23.7182 82.7463 23.6969C82.3672 23.6755 82.002 23.6541 81.6525 23.6327C81.3031 23.6114 81.0326 23.5861 80.843 23.557V8.46247H80.8411ZM85.2399 10.8739C84.9635 10.8739 84.693 10.8856 84.4304 10.907C84.1678 10.9283 83.9704 10.9458 83.8401 10.9614V21.0619C83.8973 21.0755 83.9862 21.0872 84.1027 21.095C84.2192 21.1027 84.3396 21.1086 84.464 21.1163C84.5884 21.1241 84.7088 21.1299 84.8253 21.1377C84.9418 21.1455 85.0365 21.1474 85.1096 21.1474C85.9566 21.1474 86.6298 20.9939 87.1333 20.685C87.6367 20.376 88.0118 19.9718 88.2606 19.4685C88.5094 18.9653 88.6693 18.3998 88.7424 17.7663C88.8154 17.1348 88.8509 16.5033 88.8509 15.8718C88.8509 15.3257 88.8174 14.7603 88.7522 14.1695C88.6871 13.5808 88.5331 13.0425 88.2922 12.5548C88.0513 12.067 87.69 11.6648 87.2083 11.3481C86.7266 11.0313 86.0711 10.8739 85.2399 10.8739Z" fill="#040000"/>
<path d="M49.8282 23.5375L44.9042 8.46246H41.9072L36.9615 23.5375H39.9585L39.9704 23.4987L39.998 23.5375L45.5696 19.8611L46.6772 23.5375H49.8282ZM41.2695 19.2509L43.2418 12.7918H43.4393L44.7028 16.9852L41.2695 19.2509Z" fill="#040000"/>
</g>
<defs>
<clipPath id="clip0_1_6">
<rect width="92" height="32" fill="white"/>
</clipPath>
</defs>
</svg>
